<svg width="24" height="24" viewBox="0 0 24 24" fill="none" xmlns="http://www.w3.org/2000/svg">
<path d="M10.9343 0.0345252C8.72962 0.23154 6.57653 1.06651 4.74241 2.43623C4.16075 2.86779 2.88484 4.1437 2.45328 4.72536C0.173535 7.7744 -0.553545 11.5646 0.445603 15.1953C0.834943 16.626 1.5198 18.0098 2.45328 19.2576C2.88484 19.8392 4.16075 21.1151 4.74241 21.5467C9.66779 25.2243 16.4038 24.7036 20.6397 20.313C24.7535 16.049 25.1429 9.5147 21.5637 4.72536C21.1322 4.1437 19.8563 2.86779 19.2746 2.43623C16.8401 0.616189 13.9036 -0.228162 10.9343 0.0345252ZM13.3689 3.20084C16.5868 3.71214 19.2793 5.92621 20.3723 8.96588C20.7475 10.0026 20.893 10.8516 20.8883 12.0149C20.8836 13.5394 20.5881 14.7637 19.8938 16.1053C18.7539 18.3053 16.629 19.9987 14.2648 20.5991C13.4251 20.8102 12.9326 20.8712 12.0085 20.8712C10.4605 20.8712 9.24561 20.5757 7.89465 19.8768C5.69465 18.7369 4.00126 16.6119 3.40083 14.2478C3.18974 13.4081 3.12876 12.9156 3.12876 11.9915C3.12876 11.0674 3.18974 10.5748 3.40083 9.73517C3.7761 8.25756 4.5923 6.83624 5.72279 5.70574C7.21917 4.21406 9.13303 3.31811 11.2345 3.12579C11.7787 3.07419 12.8013 3.11171 13.3689 3.20084Z" fill="black"/>
<path d="M7.97434 7.78378C7.7351 7.90574 7.73979 7.78847 7.75387 12.0477L7.76325 16.0209L7.87114 16.1288L7.97903 16.2367H12.0085H16.0379L16.1458 16.1288L16.2537 16.0209V11.9915V7.96203L16.1458 7.85414L16.0379 7.74625L12.0647 7.73687C8.93596 7.72749 8.06815 7.73687 7.97434 7.78378Z" fill="black"/>
</svg>
