<?xml version="1.0" standalone="no"?>
<!DOCTYPE svg PUBLIC "-//W3C//DTD SVG 20010904//EN"
 "http://www.w3.org/TR/2001/REC-SVG-20010904/DTD/svg10.dtd">
<svg version="1.0" xmlns="http://www.w3.org/2000/svg"
 width="512.000000pt" height="512.000000pt" viewBox="0 0 512.000000 512.000000"
 preserveAspectRatio="xMidYMid meet">

<g transform="translate(0.000000,512.000000) scale(0.100000,-0.100000)"
fill="#000000" stroke="none">
<path d="M2445 5114 c-422 -31 -726 -114 -1062 -289 -744 -388 -1248 -1109
-1359 -1945 -20 -149 -22 -448 -5 -600 107 -935 723 -1743 1599 -2094 599
-241 1285 -241 1884 0 807 324 1398 1036 1567 1889 59 299 59 670 0 970 -201
1021 -1003 1823 -2024 2024 -166 33 -462 55 -600 45z m-820 -1964 c96 -14 163
-49 228 -120 136 -147 138 -353 5 -505 -50 -56 -104 -89 -188 -111 -36 -10
-66 -19 -68 -20 -2 -1 49 -69 112 -149 93 -118 116 -154 116 -179 -1 -35 -15
-57 -48 -75 -53 -28 -72 -11 -243 205 l-161 204 -64 0 -64 0 0 -190 c0 -189 0
-191 -25 -215 -30 -31 -83 -33 -116 -6 l-24 19 -3 535 c-2 345 1 544 8 561 18
48 55 55 270 55 107 1 227 -4 265 -9z m1318 -1 c30 -8 42 -18 53 -44 15 -38
11 -59 -19 -92 -20 -23 -22 -23 -334 -23 l-313 0 0 -175 0 -175 313 0 c240 -1
316 -4 329 -14 27 -20 39 -62 27 -93 -20 -52 -21 -52 -356 -53 l-313 0 0 -175
0 -175 313 0 c312 0 314 0 334 -22 30 -34 34 -55 19 -93 -11 -26 -23 -36 -53
-44 -51 -15 -665 -15 -716 0 -68 18 -67 13 -67 589 0 569 0 571 62 589 47 13
673 14 721 0z m782 0 c71 -13 142 -48 194 -94 77 -70 137 -231 110 -297 -33
-81 -159 -54 -159 34 -1 76 -71 166 -147 187 -50 14 -171 14 -214 0 -51 -18
-97 -55 -122 -102 -21 -41 -22 -51 -22 -317 l0 -275 28 -47 c38 -65 95 -97
184 -105 92 -8 170 10 217 49 43 35 75 97 76 143 0 66 57 105 116 80 47 -19
59 -53 44 -130 -24 -121 -98 -218 -208 -272 -55 -27 -63 -28 -207 -28 -144 0
-152 1 -207 28 -113 55 -190 163 -208 288 -12 82 -12 455 -1 536 24 164 134
284 291 319 70 16 161 17 235 3z"/>
<path d="M1250 2781 l0 -211 188 0 c212 0 242 8 299 73 85 97 59 248 -55 314
-46 28 -50 28 -239 31 l-193 4 0 -211z"/>
</g>
</svg>
